<svg xmlns="http://www.w3.org/2000/svg" version="1.1" xmlns:xlink="http://www.w3.org/1999/xlink" xmlns:svgjs="http://svgjs.com/svgjs" width="1440" height="560" preserveAspectRatio="none" viewBox="0 0 1440 560">
    <g mask="url(&quot;#SvgjsMask1572&quot;)" fill="none">
        <rect width="1440" height="560" x="0" y="0" fill="url(#SvgjsLinearGradient1573)"></rect>
        <path d="M988.3506062320779 357.4181973215337L916.4128109282383 422.19127915098096 981.1858927576857 494.1290744548205 1053.1236880615252 429.35599262537323z" fill="rgba(160, 134, 196, 0.33)" class="triangle-float2"></path>
        <path d="M375.219,514.29C412.222,516.572,442.622,486.592,459.309,453.487C474.368,423.61,471.17,388.122,452.961,360.053C436.288,334.35,405.846,323.082,375.219,323.858C346.055,324.597,318.351,338.421,304.014,363.828C289.905,388.831,295.081,418.166,307.361,444.116C322.279,475.639,340.41,512.143,375.219,514.29" fill="rgba(160, 134, 196, 0.33)" class="triangle-float2"></path>
        <path d="M1010.157,440.683C1065.092,442.338,1118.876,420.034,1148.735,373.892C1181.358,323.479,1192.532,257.92,1161.812,206.325C1131.642,155.654,1069,137.234,1010.157,141.15C957.998,144.621,915.228,178.724,889.851,224.425C865.291,268.654,860.729,321.747,885.323,365.957C910.592,411.38,958.202,439.118,1010.157,440.683" fill="rgba(160, 134, 196, 0.33)" class="triangle-float2"></path>
        <path d="M1324.217,255.813C1358.891,255.609,1391.527,238.07,1408.625,207.904C1425.5,178.132,1424.222,140.899,1405.639,112.162C1388.462,85.598,1355.833,76.301,1324.217,77.37C1294.68,78.368,1267.994,92.638,1251.802,117.362C1233.682,145.029,1222.741,179.602,1238.069,208.908C1254.311,239.961,1289.174,256.019,1324.217,255.813" fill="rgba(160, 134, 196, 0.33)" class="triangle-float3"></path>
        <path d="M598.022268446623 387.4219809658907L486.30016881800634 373.7042320198405 472.58241987195606 485.42633164845716 584.3045195005727 499.1440805945074z" fill="rgba(160, 134, 196, 0.33)" class="triangle-float1"></path>
        <path d="M870.4845310477706 335.2531916848441L964.0593865562615 291.61851995048727 826.8498593134137 241.67833617635318z" fill="rgba(160, 134, 196, 0.33)" class="triangle-float2"></path>
        <path d="M704.4710817361524 288.75868750479276L563.5386150785323 263.90849117525823 538.6884187489978 404.8409578328783 679.6208854066178 429.69115416241283z" fill="rgba(160, 134, 196, 0.33)" class="triangle-float3"></path>
        <path d="M212.49 15.91 a119.93 119.93 0 1 0 239.86 0 a119.93 119.93 0 1 0 -239.86 0z" fill="rgba(160, 134, 196, 0.33)" class="triangle-float3"></path>
        <path d="M1071.7 93.52 a96.95 96.95 0 1 0 193.9 0 a96.95 96.95 0 1 0 -193.9 0z" fill="rgba(160, 134, 196, 0.33)" class="triangle-float1"></path>
    </g>
    <defs>
        <mask id="SvgjsMask1572">
            <rect width="1440" height="560" fill="#ffffff"></rect>
        </mask>
        <linearGradient x1="15.28%" y1="-39.29%" x2="84.72%" y2="139.29%" gradientUnits="userSpaceOnUse" id="SvgjsLinearGradient1573">
            <stop stop-color="#0e2a47" offset="0"></stop>
            <stop stop-color="rgba(255, 255, 255, 0.26)" offset="1"></stop>
        </linearGradient>
    </defs>
</svg>